<svg width="26" height="27" viewBox="0 0 26 27" xmlns="http://www.w3.org/2000/svg"><title>UI/Icons/Middle-Size/07</title><g stroke-width="2" stroke="#2572DE" fill="none" fill-rule="evenodd" opacity=".7" stroke-linecap="round" stroke-linejoin="round"><path d="M13 13c-1.839 0-3.365-1.516-3.495-3.473l-.152-2.27C9.208 5.09 10.814 3.25 12.848 3.25h.304c2.033 0 3.64 1.841 3.495 4.006l-.152 2.27C16.365 11.485 14.84 13 13 13zM4.875 20.312l.187-.955c.448-2.28 2.409-3.92 4.687-3.92h6.502c2.279 0 4.24 1.64 4.687 3.92l.187.954"/><path d="M25.188 18.688c0 .896-.729 1.625-1.625 1.625H2.438a1.626 1.626 0 0 1-1.626-1.625V2.438c0-.898.728-1.626 1.625-1.626h21.125c.897 0 1.625.728 1.625 1.625v16.25zM4.875 25.188h16.25M17.875 25.188h-9.75l.813-4.875h8.124z"/></g></svg>