<svg width="32" height="32" viewBox="0 0 32 32" xmlns="http://www.w3.org/2000/svg"><title>icon-21</title><g stroke="#2572DE" stroke-width="2" fill="none" fill-rule="evenodd" stroke-linecap="round" stroke-linejoin="round"><path d="M10.402 22.751C10.92 23.498 11.89 24 13 24c1.657 0 3-1.119 3-2.5s-1.437-1.838-3-2.5c-1.614-.702-3-1.119-3-2.5s1.343-2.5 3-2.5c1.113 0 2.085.505 2.603 1.255M13 14v-2M13 26v-2"/><path d="M25 19c0 6.627-5.373 12-12 12S1 25.627 1 19 6.373 7 13 7s12 5.373 12 12z"/><path d="M11.047 4.013A11.956 11.956 0 0 1 19 1c6.627 0 12 5.372 12 12 0 3.201-1.254 6.111-3.298 8.262"/><path d="M8.047 7.013A11.956 11.956 0 0 1 16 4c6.627 0 12 5.372 12 12 0 3.201-1.254 6.111-3.298 8.262M11.063 4l-6.248 6.226M21.406 27.563l6.292-6.298"/></g></svg>