<svg width="32" height="32" viewBox="0 0 32 32" xmlns="http://www.w3.org/2000/svg" xmlns:xlink="http://www.w3.org/1999/xlink"><title>icon-39</title><defs><path id="a" d="M0 32h32V0H0z"/></defs><g fill="none" fill-rule="evenodd"><path d="M17.218 13l1.49-9.402C18.927 2.233 17.859 1 16.46 1h-.002c-.864 0-1.654.483-2.038 1.247L9 13v18h18.204c1.16 0 2.136-.862 2.264-2.002l1.518-13.499c.15-1.333-.906-2.499-2.263-2.499H17.218z" stroke="#2572DE" stroke-width="2" stroke-linecap="round" stroke-linejoin="round"/><mask id="b" fill="#fff"><use xlink:href="#a"/></mask><path stroke="#2572DE" stroke-width="2" stroke-linecap="round" stroke-linejoin="round" mask="url(#b)" d="M1 31h8V13H1z"/><path d="M5.998 17a.998.998 0 1 1-1.996 0 .998.998 0 0 1 1.996 0" fill="#2572DE" mask="url(#b)"/></g></svg>