<svg width="24" height="24" viewBox="0 0 24 24" xmlns="http://www.w3.org/2000/svg"><title>icon-14</title><g stroke="#2572DE" stroke-width="2" fill="none" fill-rule="evenodd" stroke-linecap="round" stroke-linejoin="round"><path d="M19.333 3.933a2.933 2.933 0 1 1-5.867 0 2.933 2.933 0 0 1 5.867 0zM10.533 12a2.933 2.933 0 1 1-5.867 0 2.933 2.933 0 0 1 5.867 0zM13.467 3.933H1M23 12H10.533M4.667 12H1M19.333 3.933H23M19.333 20.067a2.933 2.933 0 1 1-5.867 0 2.933 2.933 0 0 1 5.867 0zM13.467 20.067H1M19.333 20.067H23"/></g></svg>