<svg width="22" height="22" viewBox="0 0 22 22" xmlns="http://www.w3.org/2000/svg"><title>icon-24</title><g stroke="#2572DE" stroke-width="2" fill="none" fill-rule="evenodd" stroke-linecap="round" stroke-linejoin="round"><path d="M21 12.333V9.667l-1.61-.806a8.622 8.622 0 0 0-.945-2.282l.569-1.707-1.886-1.886-1.707.57a8.613 8.613 0 0 0-2.282-.946L12.333 1H9.667L8.86 2.61a8.613 8.613 0 0 0-2.282.945l-1.707-.569-1.886 1.886.57 1.707a8.622 8.622 0 0 0-.946 2.282L1 9.667v2.666l1.61.806c.207.812.527 1.578.945 2.282l-.569 1.707 1.886 1.886 1.707-.57a8.613 8.613 0 0 0 2.282.946L9.667 21h2.666l.806-1.61a8.613 8.613 0 0 0 2.282-.945l1.707.569 1.886-1.886-.57-1.707c.42-.704.739-1.47.946-2.282l1.61-.806z"/><path d="M14.333 11a3.333 3.333 0 1 1-6.666 0 3.333 3.333 0 0 1 6.666 0z"/></g></svg>